<?xml version="1.0" standalone="no"?>
<!DOCTYPE svg PUBLIC "-//W3C//DTD SVG 20010904//EN"
 "http://www.w3.org/TR/2001/REC-SVG-20010904/DTD/svg10.dtd">
<svg version="1.0" xmlns="http://www.w3.org/2000/svg"
 width="110.000000pt" height="153.000000pt" viewBox="0 0 110.000000 153.000000"
 preserveAspectRatio="xMidYMid meet">

<g transform="translate(0.000000,153.000000) scale(0.100000,-0.100000)"
fill="#000000" stroke="none">
<path d="M640 1472 c44 -38 36 -48 -16 -22 -21 12 -48 19 -59 18 -16 -3 -12
-8 19 -23 22 -10 34 -21 28 -23 -6 -2 -23 5 -38 15 -15 10 -29 13 -31 8 -2 -6
-27 -9 -55 -8 -43 2 -49 1 -30 -7 32 -13 22 -35 -14 -33 l-29 2 28 -15 c16 -9
27 -18 24 -21 -3 -2 -14 0 -25 6 -26 14 -45 14 -37 1 3 -5 0 -18 -7 -29 -10
-17 -10 -27 1 -53 7 -18 15 -42 18 -53 4 -18 3 -18 -9 -3 -7 9 -19 25 -26 35
-12 17 -13 17 -7 -2 5 -18 4 -18 -12 2 -20 25 -43 18 -40 -12 1 -14 -3 -19
-16 -17 -19 3 -23 -14 -4 -22 6 -3 -5 -3 -27 1 -25 4 -41 1 -46 -7 -6 -9 -12
-9 -28 1 -19 12 -24 11 -42 -9 -24 -26 -55 -29 -64 -6 -8 22 -3 27 33 28 16 1
29 3 28 6 -1 3 4 15 11 27 10 19 16 20 44 12 18 -5 34 -9 35 -9 1 0 0 8 -4 18
-6 15 -4 15 15 -2 21 -18 21 -18 28 23 7 47 16 51 40 19 15 -20 16 -21 10 -3
-5 17 -3 16 15 -5 17 -20 19 -21 14 -5 -4 11 -7 28 -7 37 0 10 -10 26 -24 37
-22 17 -23 20 -7 24 12 3 10 5 -7 6 -27 1 -76 -21 -127 -57 -17 -12 -38 -22
-45 -22 -8 0 -28 -12 -44 -26 -16 -15 -22 -23 -14 -18 12 6 13 5 4 -7 -13 -17
-26 -103 -18 -123 3 -8 12 -12 20 -9 8 3 11 9 8 14 -3 5 2 9 10 9 19 0 32 -20
18 -29 -6 -4 -7 -12 -3 -20 7 -10 13 -11 30 -2 11 7 21 16 21 21 0 5 13 16 29
24 26 14 34 14 87 -4 155 -50 211 -65 232 -62 12 2 22 -2 22 -7 0 -9 60 8 70
20 3 3 16 12 29 18 30 16 44 3 35 -33 -6 -24 -10 -26 -60 -26 -37 0 -54 -4
-54 -12 1 -15 35 -58 47 -58 4 -1 19 -9 31 -20 36 -30 23 -71 -32 -98 -24 -12
-54 -22 -68 -22 -13 0 -42 -8 -64 -19 -21 -10 -69 -21 -106 -24 -36 -3 -82
-13 -101 -21 -42 -17 -65 -52 -47 -70 9 -8 14 -8 17 2 3 6 9 12 14 12 6 0 7
-5 4 -10 -4 -6 -8 -22 -11 -36 -4 -22 -2 -24 15 -15 27 15 56 14 70 -3 10 -11
8 -16 -6 -24 -26 -15 -10 -25 50 -30 68 -5 113 16 133 64 16 38 22 40 49 20
13 -9 21 -32 26 -77 3 -35 10 -76 14 -91 6 -22 1 -33 -29 -63 -20 -19 -36 -32
-36 -26 0 5 -9 11 -20 14 -23 6 -27 -8 -5 -17 8 -3 15 -14 15 -23 0 -10 7 -28
15 -40 14 -20 14 -23 -2 -31 -39 -20 -73 -23 -79 -7 -3 8 -10 13 -14 10 -21
-13 -19 18 3 57 19 33 23 53 20 86 -3 23 -8 42 -12 42 -12 -1 -66 -56 -93 -96
-33 -47 -36 -74 -9 -81 25 -6 38 -97 20 -137 l-13 -27 -18 23 c-14 18 -18 19
-18 7 0 -9 -9 -19 -20 -22 -53 -14 11 -102 106 -147 117 -56 152 -63 241 -44
144 29 242 106 312 246 33 64 40 90 46 165 7 78 11 90 36 114 l28 26 -3 149
c-2 106 -7 156 -17 174 -9 16 -16 70 -19 152 -4 95 -10 131 -21 145 -9 10 -19
26 -22 36 -4 10 -28 27 -54 38 -45 19 -48 22 -49 59 -3 73 -101 152 -204 165
-25 3 -54 8 -65 11 -13 4 -9 -4 15 -24z m-115 -62 c3 -5 -1 -10 -9 -10 -8 0
-18 5 -21 10 -3 6 1 10 9 10 8 0 18 -4 21 -10z m-90 -248 c-3 -3 -11 0 -18 7
-9 10 -8 11 6 5 10 -3 15 -9 12 -12z m149 -848 c14 -5 12 -11 -9 -36 -14 -16
-25 -33 -25 -37 0 -13 33 -39 63 -50 27 -11 27 -11 10 -37 -21 -33 -69 -54
-122 -54 -34 0 -41 4 -54 32 -43 91 51 215 137 182z"/>
<path d="M85 1131 c-6 -11 9 -23 19 -14 9 9 7 23 -3 23 -6 0 -12 -4 -16 -9z"/>
<path d="M101 1101 c-11 -7 -15 -35 -15 -113 -1 -162 17 -268 47 -268 5 0 3
-8 -4 -17 -13 -16 -12 -17 4 -4 18 14 23 41 8 41 -4 0 -6 12 -3 26 2 14 -1 72
-7 127 -8 70 -9 113 -2 135 8 27 8 32 -3 23 -10 -8 -12 -3 -11 24 0 19 1 35 0
35 0 0 -6 -4 -14 -9z"/>
<path d="M70 721 c0 -12 5 -21 10 -21 6 0 10 6 10 14 0 8 -4 18 -10 21 -5 3
-10 -3 -10 -14z"/>
<path d="M118 625 c-8 -18 -8 -29 -1 -36 7 -7 14 -1 21 20 14 39 -3 52 -20 16z"/>
</g>
</svg>
